<?xml version="1.0" encoding="UTF-8" standalone="no" ?>
<!DOCTYPE svg PUBLIC "-//W3C//DTD SVG 1.1//EN" "http://www.w3.org/Graphics/SVG/1.1/DTD/svg11.dtd">
<svg xmlns="http://www.w3.org/2000/svg" xmlns:xlink="http://www.w3.org/1999/xlink" version="1.1" width="500" height="500" viewBox="0 0 500 500" xml:space="preserve">
<desc>Created with Fabric.js 3.6.3</desc>
<defs>
</defs>
<g transform="matrix(1 0 0 1 249.56999999999996 435.6456096774193)" style=""  ><path fill="#545454" opacity="1" d="M-60.94-8.73L-63.94-8.73L-63.94-5.17L-54.00-5.17C-49.31-5.17-45.75-8.73-45.75-13.42L-45.75-23.17C-45.75-27.86-49.31-31.42-54.00-31.42L-63.94-31.42L-63.94-27.86L-60.94-27.86ZM-57.37-27.86L-54.00-27.86C-51.37-27.86-49.31-25.79-49.31-23.17L-49.31-13.42C-49.31-10.79-51.37-8.73-54.00-8.73L-57.37-8.73Z"/><path fill="#545454" opacity="1" d="M-42.75-8.73L-42.75-5.17L-29.81-5.17L-29.81-8.73L-34.50-8.73L-34.50-27.86L-29.81-27.86L-29.81-31.42L-42.75-31.42L-42.75-27.86L-38.06-27.86L-38.06-8.73L-42.75-8.73Z"/><path fill="#545454" opacity="1" d="M-18.19-8.36C-21.00-8.36-23.25-10.61-23.25-13.42L-23.25-23.17C-23.25-25.98-21.00-28.23-18.19-28.23C-14.62-28.23-13.50-25.04-13.50-25.04L-10.50-26.92C-10.50-26.92-12.56-31.79-18.19-31.79C-23.06-31.79-26.81-28.04-26.81-23.17L-26.81-13.42C-26.81-8.54-23.06-4.79-18.19-4.79C-13.31-4.79-9.56-8.54-9.56-13.42L-9.56-14.92L-6.56-14.92L-6.56-18.48L-16.12-18.48L-16.12-14.92L-13.12-14.92L-13.12-13.42C-13.12-10.61-15.37-8.36-18.19-8.36Z"/><path fill="#545454" opacity="1" d="M-6.19-8.73L-6.19-5.17L6.75-5.17L6.75-8.73L2.06-8.73L2.06-27.86L6.75-27.86L6.75-31.42L-6.19-31.42L-6.19-27.86L-1.50-27.86L-1.50-8.73L-6.19-8.73Z"/><path fill="#545454" opacity="1" d="M18.38-16.98L24.94-16.98L24.94-20.54L8.25-20.54L8.25-16.98L14.81-16.98L14.81-5.17L18.38-5.17ZM8.25-27.86L24.94-27.86L24.94-31.42L8.25-31.42Z"/><path fill="#545454" opacity="1" d="M28.69-5.17L30.75-11.54L39.37-11.54L41.44-5.17L45.19-5.17L36.94-31.42L33.19-31.42L24.94-5.17ZM35.06-25.61L38.44-14.92L31.69-14.92Z"/><path fill="#545454" opacity="1" d="M63.94-11.92L60.37-11.92L60.37-8.73L52.12-8.73L52.12-31.42L48.56-31.42L48.56-5.17L63.94-5.17Z"/><path fill="#545454" opacity="1" d="M-70.50 25.17L-70.50 2.48L-74.81 2.48L-80.63 13.73L-86.44 2.48L-90.75 2.48L-90.75 28.73L-87.19 28.73L-87.19 8.29L-82.50 17.48L-78.75 17.48L-74.06 8.29L-74.06 28.73L-67.50 28.73L-67.50 25.17Z"/><path fill="#545454" opacity="1" d="M-63.38 28.73L-61.31 22.36L-52.69 22.36L-50.63 28.73L-46.88 28.73L-55.13 2.48L-58.88 2.48L-67.13 28.73ZM-57.00 8.29L-53.63 18.98L-60.38 18.98Z"/><path fill="#545454" opacity="1" d="M-30.56 9.98C-30.56 12.23-32.25 13.92-34.50 13.92L-43.50 13.92L-43.50 28.73L-39.94 28.73L-39.94 17.48L-35.81 17.48L-30.38 28.73L-26.44 28.73L-32.25 17.11C-32.25 17.11-27.00 15.42-27.00 9.98C-27.00 5.86-30.38 2.48-34.50 2.48L-46.50 2.48L-46.50 6.04L-34.50 6.04C-32.25 6.04-30.56 7.73-30.56 9.98Z"/><path fill="#545454" opacity="1" d="M-21.56 28.73L-18.00 28.73L-18.00 17.29L-14.44 17.29L-8.81 28.73L-4.88 28.73L-11.44 15.61L-4.88 2.48L-8.81 2.48L-14.44 13.73L-18.00 13.73L-18.00 2.48L-24.56 2.48L-24.56 6.04L-21.56 6.04Z"/><path fill="#545454" opacity="1" d="M14.63 25.17L2.44 25.17L2.44 17.29L11.25 17.29L11.25 13.73L2.44 13.73L2.44 6.04L14.63 6.04L14.63 2.48L-1.12 2.48L-1.12 28.73L14.63 28.73Z"/><path fill="#545454" opacity="1" d="M26.63 16.92L33.19 16.92L33.19 13.36L16.50 13.36L16.50 16.92L23.06 16.92L23.06 28.73L26.63 28.73ZM16.50 6.04L33.19 6.04L33.19 2.48L16.50 2.48Z"/><path fill="#545454" opacity="1" d="M34.69 25.17L34.69 28.73L47.63 28.73L47.63 25.17L42.94 25.17L42.94 6.04L47.63 6.04L47.63 2.48L34.69 2.48L34.69 6.04L39.38 6.04L39.38 25.17L34.69 25.17Z"/><path fill="#545454" opacity="1" d="M64.31 2.48L64.31 20.86L54.94 2.48L48.38 2.48L48.38 6.04L51.38 6.04L51.38 28.73L54.94 28.73L54.94 10.36L64.31 28.73L67.88 28.73L67.88 2.48Z"/><path fill="#545454" opacity="1" d="M82.50 25.54C79.69 25.54 77.44 23.29 77.44 20.48L77.44 10.73C77.44 7.92 79.69 5.67 82.50 5.67C86.06 5.67 87.19 8.86 87.19 8.86L90.19 6.98C90.19 6.98 88.13 2.11 82.50 2.11C77.63 2.11 73.88 5.86 73.88 10.73L73.88 20.48C73.88 25.36 77.63 29.11 82.50 29.11C87.38 29.11 91.13 25.36 91.13 20.48L91.13 18.98L94.13 18.98L94.13 15.42L84.56 15.42L84.56 18.98L87.56 18.98L87.56 20.48C87.56 23.29 85.31 25.54 82.50 25.54Z"/></g><g transform="matrix(3.312564774866364 0 0 3.312564774866364 250 174.5)"  >
<g style=""   >
		<g transform="matrix(1 0 0 1 0 22.656250000000004)" clip-path="url(#CLIPPATH_2363)"  >
<linearGradient id="SVGID_2361" gradientUnits="userSpaceOnUse" gradientTransform="matrix(1 0 0 1 12.975000000000001 10)"  x1="0" y1="0" x2="74.05000000000001" y2="80">
<stop offset="0%" style="stop-color:rgb(81,80,79);stop-opacity: 1"/>
<stop offset="50%" style="stop-color:rgb(147,149,152);stop-opacity: 1"/>
<stop offset="100%" style="stop-color:rgb(81,80,79);stop-opacity: 1"/>
</linearGradient>
<clipPath id="CLIPPATH_2363" >
	<rect transform="matrix(1 0 0 1 0 -22.656250000000004)" x="-37.025000000000006" y="-17.343749999999996" rx="0" ry="0" width="74.05000000000001" height="34.68749999999999" />
</clipPath>
<path style="stroke: none; stroke-width: 0; stroke-dasharray: none; stroke-linecap: butt; stroke-dashoffset: 0; stroke-linejoin: miter; stroke-miterlimit: 4; fill: url(#SVGID_2361); fill-rule: nonzero; opacity: 1;"  transform=" translate(-50.00000000000001, -50)" d="M 18 42 c -6.7 6.7 -6.7 17.5 0 24.2 c 6.7 6.7 17.6 6.7 24.3 0 l 2.1 -2.1 L 41.7 90 h 16.6 l -2.7 -26 l 2.2 2.2 c 6.7 6.7 17.5 6.7 24.2 0 c 6.7 -6.7 6.7 -17.5 0 -24.2 l -7.8 -7.8 L 50 10 L 25.8 34.2 L 18 42 z" stroke-linecap="round" />
</g>
</g>
</g>
<g transform="matrix(1 0 0 1 249.5699999999999 192.88254531408847)" style=""  ><path fill="#737373" opacity="1" d="M25.58-24.30Q23.23-24.20 22.17-23.79Q21.11-23.38 20.71-22.27Q20.31-21.16 20.31-18.71L20.31-18.71L20.31 13.53Q20.31 15.98 20.71 17.09Q21.11 18.20 22.17 18.61Q23.23 19.02 25.58 19.12L25.58 19.12L25.58 20.42Q22.53 20.23 17.33 20.23L17.33 20.23Q11.74 20.23 9.01 20.42L9.01 20.42L9.01 19.12Q11.36 19.02 12.41 18.61Q13.46 18.20 13.85 17.09Q14.25 15.98 14.25 13.53L14.25 13.53L14.25-21.25L-1.40 20.74L-2.44 20.74L-18.82-21.44L-18.82 12.87Q-18.82 15.37-18.38 16.64Q-17.93 17.91-16.71 18.47Q-15.49 19.02-12.92 19.12L-12.92 19.12L-12.92 20.42Q-15.23 20.23-19.55 20.23L-19.55 20.23Q-23.42 20.23-25.58 20.42L-25.58 20.42L-25.58 19.12Q-23.33 19.02-22.23 18.47Q-21.14 17.91-20.73 16.64Q-20.31 15.37-20.31 12.87L-20.31 12.87L-20.31-18.71Q-20.31-21.16-20.71-22.27Q-21.11-23.38-22.17-23.79Q-23.23-24.20-25.58-24.30L-25.58-24.30L-25.58-25.60Q-23.45-25.41-19.55-25.41L-19.55-25.41Q-16.12-25.41-14.00-25.60L-14.00-25.60L0.29 12.10L14.25-25.41L17.33-25.41Q22.53-25.41 25.58-25.60L25.58-25.60L25.58-24.30Z"/></g><g transform="matrix(1 -2.4493e-16 2.4493e-16 1 249.56999999999994 254.82399999999996)" style=""  ><path fill="#545454" opacity="1" d="M-76.81 10.99L-73.48 10.99L-73.48 0.32L-64.73 0.32L-64.73 10.99L-61.41 10.99L-61.41-13.51L-64.73-13.51L-64.73-3.01L-73.48-3.01L-73.48-13.51L-79.61-13.51L-79.61-10.18L-76.81-10.18L-76.81 10.99Z"/><path fill="#545454" opacity="1" d="M-51.29 3.29C-51.29 7.84-47.79 11.34-43.24 11.34C-38.69 11.34-35.19 7.84-35.19 3.29L-35.19-5.81C-35.19-10.36-38.69-13.86-43.24-13.86C-47.79-13.86-51.29-10.36-51.29-5.81ZM-38.52 3.29C-38.52 5.92-40.62 8.02-43.24 8.02C-45.87 8.02-47.97 5.92-47.97 3.29L-47.97-5.81C-47.97-8.43-45.87-10.53-43.24-10.53C-40.62-10.53-38.52-8.43-38.52-5.81Z"/><path fill="#545454" opacity="1" d="M-10.73 4.69L-14.05 4.69L-14.05 7.67L-21.75 7.67L-21.75-13.51L-25.08-13.51L-25.08 10.99L-10.73 10.99Z"/><path fill="#545454" opacity="1" d="M-2.01 7.67L-4.81 7.67L-4.81 10.99L4.46 10.99C8.84 10.99 12.16 7.67 12.16 3.29L12.16-5.81C12.16-10.18 8.84-13.51 4.46-13.51L-4.81-13.51L-4.81-10.18L-2.01-10.18ZM1.31-10.18L4.46-10.18C6.91-10.18 8.84-8.26 8.84-5.81L8.84 3.29C8.84 5.74 6.91 7.67 4.46 7.67L1.31 7.67Z"/><path fill="#545454" opacity="1" d="M22.98-13.51L20.18-7.91L22.28-7.91L26.13-13.51Z"/><path fill="#545454" opacity="1" d="M49.54 7.67L38.17 7.67L38.17 0.32L46.39 0.32L46.39-3.01L38.17-3.01L38.17-10.18L49.54-10.18L49.54-13.51L34.84-13.51L34.84 10.99L49.54 10.99Z"/><path fill="#545454" opacity="1" d="M76.81 7.67L76.81-13.51L72.78-13.51L67.36-3.01L61.93-13.51L57.91-13.51L57.91 10.99L61.23 10.99L61.23-8.08L65.61 0.49L69.11 0.49L73.48-8.08L73.48 10.99L79.61 10.99L79.61 7.67Z"/></g><g transform="matrix(3.3184031951121793 0 0 3.3184031951121793 250 327.8680639022436)"  >
<g style=""   >
		<g transform="matrix(1 0 0 1 0 -23.4655222177157)" clip-path="url(#CLIPPATH_2364)"  >
<linearGradient id="SVGID_2362" gradientUnits="userSpaceOnUse" gradientTransform="matrix(1 0 0 1 12.975000000000001 10)"  x1="0" y1="0" x2="74.05000000000001" y2="80">
<stop offset="0%" style="stop-color:rgb(81,80,79);stop-opacity: 1"/>
<stop offset="50%" style="stop-color:rgb(147,149,152);stop-opacity: 1"/>
<stop offset="100%" style="stop-color:rgb(81,80,79);stop-opacity: 1"/>
</linearGradient>
<clipPath id="CLIPPATH_2364" >
	<rect transform="matrix(1 0 0 1 0 23.465522217715698)" x="-37.025000000000006" y="-16.53447778228431" rx="0" ry="0" width="74.05000000000001" height="33.06895556456862" />
</clipPath>
<path style="stroke: none; stroke-width: 0; stroke-dasharray: none; stroke-linecap: butt; stroke-dashoffset: 0; stroke-linejoin: miter; stroke-miterlimit: 4; fill: url(#SVGID_2362); fill-rule: nonzero; opacity: 1;"  transform=" translate(-50.00000000000001, -50)" d="M 18 42 c -6.7 6.7 -6.7 17.5 0 24.2 c 6.7 6.7 17.6 6.7 24.3 0 l 2.1 -2.1 L 41.7 90 h 16.6 l -2.7 -26 l 2.2 2.2 c 6.7 6.7 17.5 6.7 24.2 0 c 6.7 -6.7 6.7 -17.5 0 -24.2 l -7.8 -7.8 L 50 10 L 25.8 34.2 L 18 42 z" stroke-linecap="round" />
</g>
</g>
</g>
</svg>